<svg width="18" height="16" viewBox="0 0 18 16" fill="none" xmlns="http://www.w3.org/2000/svg">
<path d="M16.875 0H1.125C0.826631 0 0.540483 0.140476 0.329505 0.390524C0.118526 0.640573 0 0.979711 0 1.33333V14.6667C0 15.0203 0.118526 15.3594 0.329505 15.6095C0.540483 15.8595 0.826631 16 1.125 16H16.875C17.1734 16 17.4595 15.8595 17.6705 15.6095C17.8815 15.3594 18 15.0203 18 14.6667V1.33333C18 0.979711 17.8815 0.640573 17.6705 0.390524C17.4595 0.140476 17.1734 0 16.875 0ZM16.0087 14.6667H2.05875L5.99625 9.84L5.18625 8.91333L1.125 13.8933V2.34667L8.11687 10.5933C8.32766 10.8417 8.61279 10.9811 8.91 10.9811C9.20721 10.9811 9.49234 10.8417 9.70312 10.5933L16.875 2.14V13.8067L12.735 8.9L11.9419 9.84L16.0087 14.6667ZM1.86187 1.33333H15.9637L8.91 9.64667L1.86187 1.33333Z" fill="#0B2639"/>
</svg>
